<svg width="30" height="30" viewBox="0 0 30 30" fill="none" xmlns="http://www.w3.org/2000/svg">
<path d="M22.5638 7.5533C22.5638 11.7247 19.1767 15.1066 14.9997 15.1066C10.8226 15.1066 7.43555 11.7244 7.43555 7.5533C7.43555 3.38221 10.8226 0 14.9997 0C19.1767 0 22.5638 3.38221 22.5638 7.5533Z" fill="black"/>
<path d="M15 17.1611C6.58937 17.1611 0 20.9594 0 25.7953C0 27.9137 2.97857 28.7482 5.21794 29.1976C7.8108 29.7111 11.2824 30 15 30C19.5106 30 30 29.5934 30 25.7954C30 20.9595 23.4106 17.1611 15 17.1611Z" fill="black"/>
</svg>
