<svg width="250" height="250" viewBox="0 0 250 250" fill="none" xmlns="http://www.w3.org/2000/svg">
<path d="M40 40H90C106.569 40 120 53.4315 120 70V115.5C120 115.5 109.362 103.241 101.5 96.5C88.7104 85.5326 65 73.5 65 73.5C65 73.5 87.5048 87.9693 99.5 100C106.738 107.259 116.5 120 116.5 120H70C53.4315 120 40 106.569 40 90V40Z" fill="#FF7722"/>
<path d="M250 250H160C143.431 250 130 236.569 130 220V136.75C130 136.75 145.958 155.138 157.75 165.25C176.934 181.701 212.5 199.75 212.5 199.75C212.5 199.75 178.743 178.046 160.75 160C149.893 149.111 135.25 130 135.25 130H220C236.569 130 250 143.431 250 160V250Z" fill="#FF7722"/>
<path d="M250 0H160C143.431 0 130 13.4315 130 30V113.25C130 113.25 145.958 94.8622 157.75 84.75C176.934 68.2989 212.5 50.25 212.5 50.25C212.5 50.25 178.743 71.9539 160.75 90C149.893 100.889 135.25 120 135.25 120H220C236.569 120 250 106.569 250 90V0Z" fill="#15A31A"/>
<path d="M0 250H90C106.569 250 120 236.569 120 220V136.75C120 136.75 104.042 155.138 92.25 165.25C73.0656 181.701 37.5 199.75 37.5 199.75C37.5 199.75 71.2572 178.046 89.25 160C100.107 149.111 114.75 130 114.75 130H30C13.4315 130 0 143.431 0 160V250Z" fill="#15A31A"/>
</svg>
