<svg width="30" height="30" viewBox="0 0 30 30" fill="none" xmlns="http://www.w3.org/2000/svg">
<path d="M27.4013 8.53788H15.3129C14.397 8.53788 13.6544 7.74152 13.6544 6.75915C13.6544 5.77679 14.397 4.98043 15.3129 4.98043H27.4013C28.3173 4.98043 29.0598 5.77679 29.0598 6.75915C29.0598 7.74152 28.3173 8.53788 27.4013 8.53788ZM13.7469 29.8826H1.65848C0.742527 29.8826 0 29.0862 0 28.1039C0 27.1215 0.742527 26.3251 1.65848 26.3251H13.7469C14.6629 26.3251 15.4054 27.1215 15.4054 28.1039C15.4054 29.0862 14.6629 29.8826 13.7469 29.8826ZM1.77201 12.0953H28.3077C29.2554 12.0953 30 12.8215 30 13.8379C30 14.8543 29.2554 15.6528 28.3077 15.6528H1.77201C0.824312 15.6528 0.147384 14.8543 0.147384 13.8379C0.147384 12.8215 0.824312 12.0953 1.77201 12.0953ZM1.77201 19.2102H28.3077C29.2554 19.2102 30 19.9364 30 20.9528C30 21.9692 29.2554 22.7677 28.3077 22.7677H1.77201C0.824312 22.7677 0.147384 21.9692 0.147384 20.9528C0.147384 19.9364 0.824312 19.2102 1.77201 19.2102ZM2.47347 4.77824H2.68207C3.24829 4.77824 3.75739 5.00961 4.20936 5.47305C4.66134 5.9365 4.88733 6.51481 4.88733 7.20731C4.88733 7.88916 4.66134 8.4508 4.20936 8.89293C3.75739 9.33506 3.19862 9.55648 2.53307 9.55648C1.80791 9.55648 1.20445 9.2452 0.722669 8.62195C0.240881 7.99869 0 7.11143 0 5.96081C0 4.90608 0.211084 3.91829 0.633267 2.99673C1.05545 2.07517 1.57198 1.3454 2.18291 0.807374C2.79382 0.269353 3.33769 0 3.8145 0C4.13238 0 4.38071 0.101208 4.55952 0.303634C4.73832 0.506053 4.82773 0.767074 4.82773 1.08669C4.82773 1.55546 4.63402 1.90171 4.24661 2.12544C3.72012 2.4344 3.30292 2.79662 2.99498 3.21213C2.68703 3.62763 2.5132 4.14966 2.47347 4.77824ZM9.05944 4.77824H9.25315C9.80943 4.77824 10.3136 5.00961 10.7655 5.47305C11.2175 5.9365 11.4435 6.51481 11.4435 7.20731C11.4435 7.87851 11.2175 8.44315 10.7655 8.90127C10.3136 9.35939 9.7548 9.58844 9.08924 9.58844C8.35415 9.58844 7.74821 9.26883 7.27139 8.62959C6.79457 7.99036 6.55617 7.10078 6.55617 5.96081C6.55617 5.14046 6.68034 4.36807 6.92868 3.64361C7.17702 2.91915 7.49738 2.28756 7.88976 1.74954C8.28214 1.21152 8.70431 0.786065 9.15629 0.471779C9.60827 0.157485 10.0131 0 10.3707 0C10.6985 0 10.9493 0.098894 11.1231 0.295991C11.297 0.493088 11.3839 0.756423 11.3839 1.08669C11.3839 1.56612 11.1902 1.91236 10.8028 2.12544C10.2564 2.45571 9.84419 2.82094 9.56605 3.22046C9.28791 3.61999 9.11904 4.13901 9.05944 4.77824ZM19.2922 25.6136C18.165 25.6136 17.2478 26.5972 17.2482 27.8079C17.2482 28.4857 17.5426 29.084 17.9944 29.4865C18.2161 29.6841 18.4752 29.832 18.7612 29.9152C18.9318 29.9649 19.1076 30 19.2926 30C19.6156 30 19.9174 29.9116 20.1893 29.7679C20.3221 29.6972 20.4452 29.6113 20.5603 29.5129C21.0298 29.1108 21.3366 28.4994 21.3366 27.8065C21.3366 26.5975 20.4194 25.6136 19.2922 25.6136Z" fill="black"/>
</svg>
