<svg width="97" height="58" viewBox="0 0 97 58" fill="none" xmlns="http://www.w3.org/2000/svg">
<path d="M10.8104 23.6888C13.8811 21.4954 17.4846 20.3987 21.6207 20.3987C25.8196 20.3987 29.1723 20.9627 31.6791 22.0908C34.2485 23.1561 36.4106 24.5975 38.1653 26.4149C41.8001 30.1124 43.6175 34.3739 43.6175 39.1994C43.6175 44.4009 41.7061 48.7877 37.8833 52.3598C33.9352 56.1199 28.9843 58 23.0308 58C15.8865 58 10.215 55.8693 6.01621 51.6078C2.0054 47.409 0 41.9881 0 35.3452C0 25.2555 3.25878 16.2626 9.77634 8.36629C13.2231 4.29281 15.8865 1.88006 17.7666 1.12804C19.7093 0.376013 21.2134 0 22.2788 0C25.2242 0 26.6969 1.37871 26.6969 4.13614C26.6969 5.13884 26.3209 5.79687 25.5689 6.11021L22.1848 7.61426C18.9887 9.05565 15.9492 11.8757 13.0665 16.0746C11.8131 18.0173 11.061 20.5554 10.8104 23.6888Z" fill="#FF7722"/>
<path d="M63.8591 23.6888C66.9299 21.4954 70.5334 20.3987 74.6695 20.3987C78.8683 20.3987 82.2211 20.9627 84.7279 22.0908C87.2973 23.1561 89.4594 24.5975 91.2141 26.4149C94.8489 30.1124 96.6663 34.3739 96.6663 39.1994C96.6663 44.4009 94.7549 48.7877 90.9321 52.3598C86.9839 56.1199 82.0331 58 76.0796 58C68.9353 58 63.2638 55.8693 59.065 51.6078C55.0542 47.409 53.0488 41.9881 53.0488 35.3452C53.0488 25.2555 56.3075 16.2626 62.8251 8.36629C66.2719 4.29281 68.9353 1.88006 70.8154 1.12804C72.7581 0.376013 74.2622 0 75.3275 0C78.273 0 79.7457 1.37871 79.7457 4.13614C79.7457 5.13884 79.3697 5.79687 78.6176 6.11021L75.2335 7.61426C72.0374 9.05565 68.998 11.8757 66.1152 16.0746C64.8618 18.0173 64.1098 20.5554 63.8591 23.6888Z" fill="#15A31A"/>
</svg>





