<svg width="23" height="30" viewBox="0 0 23 30" fill="none" xmlns="http://www.w3.org/2000/svg">
<path d="M22.2276 23.0751L20.4493 20.1518V20.1532C19.4653 18.5404 17.3605 18.0284 15.7477 19.0124L14.2789 19.9065C13.8439 20.1774 13.2806 20.119 12.9099 19.7653C10.5584 17.4509 8.81861 14.5887 7.84463 11.4375C7.7063 10.9455 7.9145 10.4222 8.35371 10.1598L9.8225 9.26708L9.82107 9.26566C11.4353 8.2817 11.9459 6.1769 10.9619 4.56401L9.18221 1.64066C8.19826 0.0278112 6.09345 -0.482693 4.48057 0.499838L1.64421 2.21819C0.623165 2.83139 -0.00142132 3.93512 2.42887e-06 5.12584C-0.00142351 10.1853 1.38611 15.1479 4.00986 19.4732C6.6466 23.7641 10.3941 27.2622 14.8562 29.5978C15.3568 29.8602 15.9143 29.9986 16.4805 30C17.1051 30 17.7183 29.8274 18.2516 29.5023L21.0851 27.7768C22.698 26.7928 23.2085 24.688 22.226 23.0752L22.2276 23.0751Z" fill="black"/>
</svg>
