<svg width="44" height="27" viewBox="0 0 44 27" fill="none" xmlns="http://www.w3.org/2000/svg">
<path d="M39.0794 15.6176C37.6817 16.616 36.0415 17.1152 34.1588 17.1152C32.2476 17.1152 30.7215 16.8585 29.5805 16.345C28.411 15.8601 27.4268 15.204 26.6281 14.3768C24.9737 12.6938 24.1464 10.7541 24.1464 8.55761C24.1464 6.19002 25.0165 4.19325 26.7565 2.56731C28.5536 0.855797 30.8071 4.00543e-05 33.517 4.00543e-05C36.7689 4.00543e-05 39.3504 0.969898 41.2616 2.90961C43.0872 4.8208 44 7.28824 44 10.3119C44 14.9045 42.5167 18.9978 39.5501 22.592C37.9812 24.4462 36.7689 25.5444 35.9131 25.8867C35.0288 26.229 34.3442 26.4001 33.8593 26.4001C32.5186 26.4001 31.8482 25.7726 31.8482 24.5175C31.8482 24.0611 32.0194 23.7616 32.3617 23.6189L33.9021 22.9343C35.3569 22.2782 36.7403 20.9946 38.0525 19.0834C38.623 18.1991 38.9653 17.0439 39.0794 15.6176Z" fill="#FF7722"/>
<path d="M14.9329 15.6176C13.5352 16.616 11.895 17.1152 10.0123 17.1152C8.10112 17.1152 6.57502 16.8585 5.43401 16.345C4.26447 15.8601 3.28035 15.204 2.48165 14.3768C0.827183 12.6938 -4.95911e-05 10.7541 -4.95911e-05 8.55761C-4.95911e-05 6.19002 0.86997 4.19325 2.61001 2.56731C4.4071 0.855797 6.66059 4.00543e-05 9.37049 4.00543e-05C12.6224 4.00543e-05 15.2039 0.969898 17.1151 2.90961C18.9407 4.8208 19.8535 7.28824 19.8535 10.3119C19.8535 14.9045 18.3702 18.9978 15.4036 22.592C13.8347 24.4462 12.6224 25.5444 11.7666 25.8867C10.8823 26.229 10.1977 26.4001 9.71279 26.4001C8.37211 26.4001 7.70177 25.7726 7.70177 24.5175C7.70177 24.0611 7.87292 23.7616 8.21522 23.6189L9.75558 22.9343C11.2104 22.2782 12.5938 20.9946 13.906 19.0834C14.4765 18.1991 14.8188 17.0439 14.9329 15.6176Z" fill="#15A31A"/>
</svg>