<svg width="30" height="30" viewBox="0 0 30 30" fill="none" xmlns="http://www.w3.org/2000/svg">
<path d="M4.1532 30H25.8448C28.1316 30 29.9983 27.4926 29.9983 24.4058L30 5.59419C30 2.51413 28.1383 0 25.8464 0H4.15358C1.8667 0 0 2.50743 0 5.59419V24.4058C0 27.4903 1.863 30 4.1532 30ZM3.75461 6.44195C4.16648 5.67475 4.96699 5.50251 5.53662 6.05722L14.9998 15.2998L24.4647 6.05722C25.0343 5.50249 25.8332 5.67249 26.2467 6.44195C26.6585 7.20914 26.5323 8.28509 25.961 8.84202L15.7487 18.8159C15.5278 19.0328 15.2638 19.1424 14.9997 19.1424C14.7356 19.1424 14.4732 19.0328 14.2507 18.8159L4.03841 8.83972C3.46879 8.285 3.34109 7.21366 3.75461 6.44195Z" fill="black"/>
</svg>
