<svg width="28" height="38" viewBox="0 0 28 38" fill="none" xmlns="http://www.w3.org/2000/svg">
<path d="M26.2491 14C26.2491 10.6167 24.8788 7.55539 22.663 5.3395C20.4473 3.12361 17.3846 1.75342 14.0025 1.75342C10.6192 1.75342 7.55795 3.12373 5.34206 5.3395C3.12617 7.55528 1.75599 10.6179 1.75599 14C1.75599 19.6052 5.70145 23.0361 9.8645 26.6548L9.87792 26.6667C9.89283 26.6787 9.90774 26.6921 9.92266 26.7055C11.3019 27.9028 12.7006 29.1226 14.0025 30.4496C15.3236 29.1032 16.7446 27.8686 18.1419 26.6533C22.3049 23.0329 26.2504 19.6033 26.2504 13.9985L26.2491 14ZM23.088 29.8414C22.6839 29.579 22.5676 29.0377 22.8315 28.6336C23.0955 28.2295 23.6352 28.1132 24.0393 28.3771C24.7238 28.8185 25.268 29.3165 25.6452 29.8533C26.0523 30.4334 26.273 31.0596 26.273 31.7172C26.273 33.4275 24.7923 34.9037 22.3977 35.91C20.2297 36.8211 17.2594 37.3862 14.0014 37.3862C10.7434 37.3862 7.77325 36.8211 5.60508 35.91C3.21039 34.902 1.72985 33.4244 1.72985 31.7172C1.72985 30.4408 2.54547 29.3001 3.9486 28.3861C4.87309 27.7852 6.07192 27.2722 7.46608 26.8816C3.48168 23.3671 0 19.796 0 14C0 10.1335 1.56716 6.63393 4.10045 4.10045C6.63381 1.56708 10.1351 0 14 0C17.8665 0 21.3661 1.56716 23.8996 4.10045C26.4344 6.63381 28 10.1351 28 14C28 20.3969 23.7579 24.0843 19.2815 27.976C17.6994 29.3508 16.0846 30.7538 14.6443 32.3077L14.5951 32.3569C14.2417 32.685 13.6885 32.6656 13.359 32.3122C12.0245 30.8733 10.5423 29.5641 9.07343 28.2847C7.35271 28.647 5.91232 29.1898 4.89816 29.8503C4.002 30.4333 3.48015 31.0775 3.48015 31.7172C3.48015 32.6551 4.55076 33.5751 6.28041 34.3012C8.23673 35.1243 10.9641 35.6328 13.9984 35.6328C17.0327 35.6328 19.7617 35.1228 21.7164 34.3012C23.4461 33.5736 24.5167 32.6551 24.5167 31.7172C24.5167 31.4294 24.4108 31.1416 24.211 30.8598C23.962 30.5049 23.5788 30.162 23.0838 29.8414L23.088 29.8414ZM14.0011 20.9977C15.9336 20.9977 17.6826 20.2149 18.9501 18.9474C20.2161 17.6815 21.0004 15.931 21.0004 13.9984C21.0004 12.0659 20.2176 10.3169 18.9501 9.04941C17.6842 7.78347 15.9352 6.99915 14.0011 6.99915C12.0687 6.99915 10.3196 7.78198 9.05212 9.04941C7.78618 10.3153 7.00186 12.0659 7.00186 13.9984C7.00186 15.931 7.7847 17.6799 9.05212 18.9474C10.3181 20.2134 12.0671 20.9977 14.0011 20.9977ZM20.1892 20.1865C18.6057 21.7701 16.4182 22.7497 14.0011 22.7497C11.5856 22.7497 9.39796 21.7701 7.81306 20.1865C6.22953 18.603 5.24988 16.4156 5.24988 13.9985C5.24988 11.5829 6.22953 9.39529 7.81306 7.81038C9.39659 6.22685 11.584 5.2472 14.0011 5.2472C16.4167 5.2472 18.6043 6.22685 20.1892 7.81038C21.7727 9.39391 22.7524 11.5814 22.7524 13.9985C22.7524 16.414 21.7727 18.6016 20.1892 20.1865Z" fill="white"/>
</svg>
