<svg width="81" height="68" viewBox="0 0 81 68" fill="none" xmlns="http://www.w3.org/2000/svg">
<path fill-rule="evenodd" clip-rule="evenodd" d="M6.73081 30.3591L5.15026 31.5151C3.88017 32.4426 2.08909 32.1644 1.1615 30.8943C0.230342 29.6206 0.512164 27.8331 1.78229 26.9055C1.78229 26.9055 7.21953 22.9381 7.23387 22.9239L35.4517 2.31967C38.4558 0.125539 42.5408 0.125539 45.5524 2.31967C45.5524 2.31967 73.5419 22.7631 73.5593 22.7741L79.2177 26.9055C80.4878 27.8331 80.7697 29.6206 79.8385 30.8943C78.9109 32.1644 77.1234 32.4427 75.8497 31.5151L74.0124 30.1735L69.7489 60.3067C69.1459 64.5309 65.5353 67.6741 61.2683 67.6741H19.4507C15.1836 67.6741 11.5695 64.5309 10.9701 60.3067L6.73081 30.3591ZM68.7881 26.3561L42.1833 6.92923C41.1807 6.19784 39.8179 6.19784 38.8153 6.92923L11.9574 26.5452L16.6241 59.5078C16.8239 60.9171 18.0263 61.9625 19.4498 61.9625H61.2674C62.6909 61.9625 63.8932 60.9171 64.0931 59.5078L68.7881 26.3561ZM34.6482 56.397C33.0747 56.397 31.7939 55.1162 31.7939 53.5428C31.7939 51.9694 33.0747 50.6886 34.6482 50.6886H46.065C47.6384 50.6886 48.9192 51.9694 48.9192 53.5428C48.9192 55.1162 47.6384 56.397 46.065 56.397H34.6482Z" fill="black"/>
</svg>
